<?xml version="1.0" standalone="no"?>
<!DOCTYPE svg PUBLIC "-//W3C//DTD SVG 20010904//EN"
 "http://www.w3.org/TR/2001/REC-SVG-20010904/DTD/svg10.dtd">
<svg version="1.0" xmlns="http://www.w3.org/2000/svg"
 width="500.000000pt" height="500.000000pt" viewBox="0 0 500.000000 500.000000"
 preserveAspectRatio="xMidYMid meet">
<metadata>
Created by potrace 1.14, written by Peter Selinger 2001-2017
</metadata>
<g transform="translate(0.000000,500.000000) scale(0.100000,-0.100000)"
fill="#000000" stroke="none">
<path d="M3318 4340 c-133 -16 -263 -69 -383 -155 -33 -24 -200 -184 -371
-357 -340 -341 -342 -344 -307 -415 25 -52 65 -78 118 -78 l43 0 324 320 c344
340 386 374 518 416 111 35 251 24 323 -26 12 -8 116 -108 231 -222 251 -250
261 -266 260 -413 0 -106 -19 -171 -76 -269 -46 -78 -901 -933 -979 -979 -98
-57 -163 -76 -269 -76 -145 -1 -165 11 -395 243 -104 105 -204 200 -221 211
-104 66 -236 -51 -180 -158 8 -15 110 -122 228 -237 234 -231 273 -259 414
-295 174 -45 363 -12 549 96 70 41 136 102 523 488 244 242 463 466 487 497
183 235 224 525 108 762 -32 64 -62 98 -277 313 -222 223 -247 244 -316 277
-115 53 -227 72 -352 57z"/>
<path d="M2158 3180 c-122 -15 -251 -64 -368 -143 -63 -42 -922 -899 -975
-972 -103 -144 -156 -296 -157 -455 -2 -114 12 -180 59 -280 33 -69 54 -94
277 -316 207 -207 251 -246 311 -276 232 -118 529 -77 764 107 31 24 193 181
361 349 l305 306 0 56 c0 51 -3 58 -37 90 -32 28 -45 34 -84 34 l-47 0 -326
-322 c-214 -212 -346 -334 -382 -356 -97 -57 -163 -76 -269 -76 -147 -1 -163
9 -413 260 -114 115 -214 219 -222 231 -53 76 -62 224 -22 336 50 136 70 160
532 622 470 470 496 492 635 536 82 26 190 27 260 4 58 -19 101 -57 319 -278
75 -76 155 -150 179 -164 55 -32 101 -26 149 22 29 29 33 39 33 86 l0 53 -227
226 c-206 205 -235 230 -303 262 -108 52 -230 72 -352 58z"/>
</g>
</svg>
